<?xml version="1.0" encoding="utf-8"?>
<!-- Generator: Adobe Illustrator 15.0.0, SVG Export Plug-In . SVG Version: 6.00 Build 0)  -->
<!DOCTYPE svg PUBLIC "-//W3C//DTD SVG 1.1//EN" "http://www.w3.org/Graphics/SVG/1.1/DTD/svg11.dtd">
<svg version="1.1" id="图层_1" xmlns="http://www.w3.org/2000/svg" xmlns:xlink="http://www.w3.org/1999/xlink" x="0px" y="0px"
	 width="32px" height="32px" viewBox="0 0 32 32" enable-background="new 0 0 32 32" xml:space="preserve">
<g>
	<path fill-rule="evenodd" clip-rule="evenodd" d="M16,32C7.164,32,0,24.836,0,16c0-0.836,0.083-1.651,0.208-2.453v-0.416
		c0,0,0.021,0.02,0.055,0.052C1.596,5.692,8.126,0,16,0c8.837,0,16,7.163,16,16C32,24.836,24.837,32,16,32z M24.352,12.686
		c0.026-0.194,0.046-0.39,0.046-0.591c0-0.283-0.029-0.558-0.082-0.825c1.572-0.174,3.589,0.104,5.398,0.158
		c-0.591-1.604-1.192-3.297-2.285-4.571c-0.801,0.443-2.712,1.146-4.063,2.48c-0.267-0.308-0.577-0.577-0.923-0.797
		c1.369-1.43,2.715-2.725,3.463-3.207c-1.148-1.098-2.347-1.617-3.81-2.286c-1.315,0.148-4.843,0.685-8.372,2.733
		c0.043,0.138,0.071,0.281,0.078,0.432c1.309,0.631,2.694,1.418,4.036,2.379c-0.297,0.199-0.563,0.437-0.801,0.703
		c-1.021-0.744-2.18-1.441-3.505-2.073c-0.306,0.47-0.833,0.783-1.436,0.783c-0.396,0-0.756-0.14-1.047-0.366
		c-2.098,1.726-4.083,4.09-5.563,7.324c0.355,0.314,0.584,0.769,0.584,1.281c0,0.281-0.075,0.543-0.195,0.778
		c0.612,0.329,1.268,0.659,1.969,0.981c0.387-0.37,0.909-0.6,1.486-0.6c0.182,0,0.356,0.029,0.525,0.072
		c1.633-1.488,3.715-2.934,6.316-4.079c0.156,0.482,0.397,0.925,0.706,1.314c-2.041,0.847-4.063,1.984-5.869,3.509
		c0.267,0.335,0.436,0.747,0.465,1.201c1.752,0.574,3.673,1.049,5.758,1.331c0.08-1.84,0.405-3.494,0.882-4.985
		c0.348,0.197,0.728,0.345,1.129,0.436c-0.419,1.39-0.698,2.946-0.764,4.693c1.294,0.123,2.642,0.174,4.04,0.131
		c0.204-0.552,0.621-0.999,1.158-1.232c-0.238-1.341-0.643-2.733-1.284-4.115c0.407-0.251,0.77-0.567,1.069-0.938
		c0.795,1.467,1.384,3.114,1.667,4.966c0.529,0.152,0.973,0.496,1.25,0.958c1.08-0.165,2.189-0.4,3.318-0.689
		c0.366-1.264,0.779-2.594,0.779-3.976c0-1.293-0.439-1.855-0.763-3.047C28.73,12.951,26.794,12.317,24.352,12.686z M7.242,19.044
		c-0.816-0.399-1.564-0.809-2.245-1.214c-0.199,0.081-0.415,0.127-0.643,0.127c-0.002,0-0.004,0-0.007,0
		c-0.432,1.398-1.063,3.229-1.299,4.9c0.375,0.724,1.035,1.642,1.523,2.285c0.337-0.786,1.216-2.995,2.719-4.911
		c-0.07-0.213-0.117-0.436-0.117-0.672C7.173,19.381,7.201,19.21,7.242,19.044z M19.897,27.919c0,0.207-0.335,0.86-0.431,1.029
		c0.102,0.386,0.224,0.368,0.343,0.767c1.289-0.352,2.693-0.848,3.81-1.524c0.23-0.945,0.279-2.479,0.34-4.35
		c-0.779-0.218-1.383-0.853-1.539-1.655c-1.373,0.06-2.69,0.032-3.95-0.067c0.029,1.51,0.215,2.968,0.59,4.744
		C19.37,27.071,19.897,27.517,19.897,27.919z M29.714,21.334c-0.88,0.214-2.179,0.255-3.024,0.398c0,0.013,0.003,0.025,0.003,0.039
		c0,0.941-0.607,1.734-1.449,2.028c-0.091,1.116,0.205,2.394-0.101,3.629C27.199,25.854,28.757,23.784,29.714,21.334z M16,30.477
		c0.923,0,2.174-0.595,3.048-0.762c-0.094-0.281-0.534-0.268-0.62-0.544c-0.005,0.001-0.009,0.002-0.014,0.002
		c-0.642,0-1.161-0.521-1.161-1.161c0-0.434,0.24-0.808,0.592-1.007c-0.406-1.79-0.604-3.461-0.63-5.012
		c-2.208-0.266-4.221-0.747-6.033-1.344c-0.375,0.637-1.06,1.067-1.852,1.067c-0.462,0-0.888-0.148-1.238-0.396
		c-0.963,1.308-2.132,2.871-2.758,4.584C7.932,28.624,11.942,30.477,16,30.477z M2.286,20.571c0.143-0.747,0.53-1.894,0.91-3.072
		c-0.331-0.305-0.542-0.735-0.553-1.219c-0.333-0.244-0.625-0.471-0.892-0.684C1.747,15.731,1.73,15.864,1.73,16
		C1.73,17.549,1.829,19.175,2.286,20.571z M1.818,14.444c0.332,0.248,0.71,0.519,1.137,0.809c0.311-0.438,0.82-0.727,1.398-0.727
		c0.003,0,0.006,0.001,0.01,0.001c1.217-2.607,3.129-5.471,6.075-7.818c-0.034-0.135-0.058-0.274-0.058-0.42
		c0-0.11,0.013-0.218,0.033-0.322C9.336,5.602,8.103,5.624,6.857,5.333C4.056,7.641,2.231,10.642,1.818,14.444z M8.125,4.104
		c0.63,0.166,1.625,0.454,2.842,0.903c0.302-0.266,0.693-0.432,1.127-0.432c0.375,0,0.718,0.123,1,0.327
		c2.002-1.127,4.372-2.015,7.173-2.522C18.92,1.958,17.487,1.524,16,1.524C13.088,1.524,10.383,2.607,8.125,4.104z M20.158,15.044
		c-1.654,0-2.995-1.341-2.995-2.995c0-1.654,1.341-2.995,2.995-2.995s2.995,1.341,2.995,2.995
		C23.153,13.703,21.813,15.044,20.158,15.044z M20.158,10.102c-1.075,0-1.946,0.872-1.946,1.947s0.871,1.947,1.946,1.947
		s1.947-0.872,1.947-1.947S21.233,10.102,20.158,10.102z M20.158,12.878c-0.534,0-0.968-0.433-0.968-0.968
		c0-0.534,0.434-0.968,0.968-0.968s0.968,0.434,0.968,0.968C21.126,12.445,20.692,12.878,20.158,12.878z"/>
</g>
</svg>
