<?xml version="1.0" encoding="utf-8"?>
<!-- Generator: Adobe Illustrator 15.0.0, SVG Export Plug-In . SVG Version: 6.00 Build 0)  -->
<!DOCTYPE svg PUBLIC "-//W3C//DTD SVG 1.1//EN" "http://www.w3.org/Graphics/SVG/1.1/DTD/svg11.dtd">
<svg version="1.1" id="图层_1" xmlns="http://www.w3.org/2000/svg" xmlns:xlink="http://www.w3.org/1999/xlink" x="0px" y="0px"
	 width="32px" height="32px" viewBox="0 0 32 32" enable-background="new 0 0 32 32" xml:space="preserve">
<g>
	<path fill-rule="evenodd" clip-rule="evenodd" d="M28.317,28.462c0,0.668-0.552,1.21-1.231,1.21c-0.681,0-1.231-0.542-1.231-1.21
		l-0.002-0.015h-0.033c-0.584-4.69-4.572-8.34-9.465-8.492c-0.106,0.004-0.21,0.016-0.317,0.016s-0.211-0.012-0.317-0.016
		c-4.893,0.153-8.88,3.803-9.464,8.492h-0.03l0.001,0.015c0,0.668-0.552,1.21-1.231,1.21c-0.68,0-1.232-0.542-1.232-1.21
		L3.753,28.35c0-0.181,0.045-0.349,0.118-0.502c0.635-4.212,3.444-7.726,7.298-9.355c-2.275-1.529-3.769-4.098-3.769-7.01
		c0-4.689,3.867-8.489,8.637-8.489s8.637,3.8,8.637,8.489c0,2.912-1.493,5.479-3.767,7.008c3.91,1.652,6.749,5.241,7.332,9.533
		c0.03,0.105,0.066,0.21,0.066,0.326L28.317,28.462z M22.203,11.484c0-3.349-2.762-6.064-6.169-6.064s-6.169,2.715-6.169,6.064
		c0,3.349,2.762,6.063,6.169,6.063S22.203,14.833,22.203,11.484z"/>
</g>
</svg>
