<?xml version="1.0" encoding="utf-8"?>
<!-- Generator: Adobe Illustrator 15.0.0, SVG Export Plug-In . SVG Version: 6.00 Build 0)  -->
<!DOCTYPE svg PUBLIC "-//W3C//DTD SVG 1.1//EN" "http://www.w3.org/Graphics/SVG/1.1/DTD/svg11.dtd">
<svg version="1.1" id="图层_1" xmlns="http://www.w3.org/2000/svg" xmlns:xlink="http://www.w3.org/1999/xlink" x="0px" y="0px"
	 width="32px" height="32px" viewBox="0 0 32 32" enable-background="new 0 0 32 32" xml:space="preserve">
<g>
	<path fill-rule="evenodd" clip-rule="evenodd" d="M28.399,27.969H25.92v0.627c0,1.732-1.388,3.139-3.1,3.139H3.6
		c-1.712,0-3.1-1.406-3.1-3.139V3.499c0-1.733,1.388-3.137,3.1-3.137H16h1.145V0.266l0.087,0.095h0.009v0.009l8.586,9.402h0.094
		v0.103l0.042,0.046H25.92v7.381h2.479c1.713,0,3.101,1.404,3.101,3.137v4.393C31.5,26.564,30.112,27.969,28.399,27.969z
		 M17.24,2.614v4.022c0,1.733,1.388,3.137,3.1,3.137h3.574L17.24,2.614z M24.68,11.028H19.1c-1.712,0-3.1-1.405-3.1-3.137V1.616
		H4.84c-1.712,0-3.1,1.404-3.1,3.137v22.588c0,1.732,1.388,3.137,3.1,3.137h16.74c1.499,0,2.75-1.078,3.037-2.51H10.42
		c-1.712,0-3.1-1.404-3.1-3.137v-4.393c0-1.732,1.388-3.137,3.1-3.137h14.26V11.028z M22.803,23.066c0-0.504-0.059-0.93-0.175-1.273
		s-0.285-0.635-0.509-0.873c-0.223-0.238-0.49-0.404-0.803-0.496c-0.231-0.068-0.57-0.104-1.014-0.104h-1.965v5.391h2.023
		c0.397,0,0.715-0.039,0.952-0.115c0.317-0.102,0.568-0.246,0.755-0.43c0.247-0.242,0.438-0.561,0.57-0.951
		C22.748,23.893,22.803,23.51,22.803,23.066z M14.97,23.678c0.487,0,0.858-0.025,1.115-0.078c0.189-0.041,0.375-0.127,0.558-0.256
		c0.183-0.129,0.334-0.305,0.452-0.531c0.119-0.225,0.178-0.504,0.178-0.834c0-0.43-0.103-0.779-0.309-1.049
		c-0.206-0.271-0.461-0.447-0.767-0.529c-0.198-0.053-0.625-0.08-1.278-0.08h-1.726v5.391h1.075v-2.033H14.97z M27.559,20.32h-3.65
		v5.391h1.075V23.42h2.223v-0.912h-2.223v-1.275h2.575V20.32z M14.269,21.232h0.52c0.387,0,0.645,0.012,0.773,0.037
		c0.175,0.031,0.318,0.111,0.433,0.238c0.114,0.127,0.171,0.289,0.171,0.486c0,0.158-0.041,0.299-0.122,0.418
		c-0.081,0.121-0.193,0.209-0.336,0.266s-0.426,0.084-0.85,0.084h-0.588V21.232z M21.301,24.525
		c-0.115,0.105-0.26,0.182-0.435,0.225c-0.133,0.035-0.35,0.053-0.65,0.053h-0.803v-3.57h0.483c0.438,0,0.732,0.018,0.883,0.051
		c0.201,0.045,0.367,0.129,0.498,0.254c0.13,0.125,0.232,0.299,0.305,0.521c0.072,0.225,0.109,0.543,0.109,0.961
		c0,0.416-0.037,0.744-0.109,0.986S21.416,24.42,21.301,24.525z M9.188,14.765h5.576v1.291H9.188V14.765z M9.188,11.648h5.576v1.271
		H9.188V11.648z M9.188,7.236h5.576v1.29H9.188V7.236z M9.188,4.119h5.576v1.271H9.188V4.119z M2.979,11.638h4.336v4.408H2.979
		V11.638z M2.979,4.119h4.336v4.408H2.979V4.119z"/>
</g>
</svg>
