<?xml version="1.0" encoding="utf-8"?>
<!-- Generator: Adobe Illustrator 15.0.0, SVG Export Plug-In . SVG Version: 6.00 Build 0)  -->
<!DOCTYPE svg PUBLIC "-//W3C//DTD SVG 1.1//EN" "http://www.w3.org/Graphics/SVG/1.1/DTD/svg11.dtd">
<svg version="1.1" id="图层_1" xmlns="http://www.w3.org/2000/svg" xmlns:xlink="http://www.w3.org/1999/xlink" x="0px" y="0px"
	 width="32px" height="32px" viewBox="0 0 32 32" enable-background="new 0 0 32 32" xml:space="preserve">
<g>
	<path fill-rule="evenodd" clip-rule="evenodd" d="M29.913,29H2.087C0.935,29,0,28.057,0,26.893V5.108C0,3.944,0.935,3,2.087,3
		h27.826C31.065,3,32,3.944,32,5.108v21.785C32,28.057,31.065,29,29.913,29z M7.582,5.811c-1.45,0.77-2.37,3.08-2.37,3.08
		L4.646,7.754L3.479,8.487c0.495,0.183,1.203,0.77,1.804,1.54c0.425-0.806,1.733-2.456,2.37-2.603
		C7.405,6.837,7.546,6.361,7.582,5.811z M7.582,13.541c-1.45,0.77-2.37,3.08-2.37,3.08l-0.566-1.136l-1.167,0.732
		c0.495,0.184,1.203,0.77,1.804,1.54c0.425-0.807,1.733-2.456,2.37-2.603C7.405,14.567,7.546,14.091,7.582,13.541z M7.582,21.271
		c-1.45,0.77-2.37,3.079-2.37,3.079l-0.566-1.136l-1.167,0.733c0.495,0.183,1.203,0.77,1.804,1.539
		c0.425-0.807,1.733-2.456,2.37-2.603C7.405,22.297,7.546,21.82,7.582,21.271z M13.565,6.514c-0.961,0-1.739,0.787-1.739,1.757
		s0.778,1.756,1.739,1.756c0.96,0,1.739-0.786,1.739-1.756S14.526,6.514,13.565,6.514z M13.565,14.243
		c-0.961,0-1.739,0.786-1.739,1.757s0.778,1.757,1.739,1.757c0.96,0,1.739-0.786,1.739-1.757S14.526,14.243,13.565,14.243z
		 M13.565,21.973c-0.961,0-1.739,0.787-1.739,1.757c0,0.971,0.778,1.757,1.739,1.757c0.96,0,1.739-0.786,1.739-1.757
		C15.304,22.76,14.526,21.973,13.565,21.973z M27.826,7.919h-7.652c-0.384,0-0.695,0.314-0.695,0.703s0.312,0.703,0.695,0.703h7.652
		c0.384,0,0.695-0.315,0.695-0.703S28.21,7.919,27.826,7.919z M27.826,14.946h-7.652c-0.384,0-0.695,0.315-0.695,0.703
		c0,0.389,0.312,0.703,0.695,0.703h7.652c0.384,0,0.695-0.314,0.695-0.703C28.521,15.261,28.21,14.946,27.826,14.946z
		 M27.826,22.676h-7.652c-0.384,0-0.695,0.314-0.695,0.703c0,0.388,0.312,0.702,0.695,0.702h7.652c0.384,0,0.695-0.314,0.695-0.702
		C28.521,22.99,28.21,22.676,27.826,22.676z"/>
</g>
</svg>
