<?xml version="1.0" encoding="utf-8"?>
<!-- Generator: Adobe Illustrator 15.0.0, SVG Export Plug-In . SVG Version: 6.00 Build 0)  -->
<!DOCTYPE svg PUBLIC "-//W3C//DTD SVG 1.1//EN" "http://www.w3.org/Graphics/SVG/1.1/DTD/svg11.dtd">
<svg version="1.1" id="图层_1" xmlns="http://www.w3.org/2000/svg" xmlns:xlink="http://www.w3.org/1999/xlink" x="0px" y="0px"
	 width="32px" height="32px" viewBox="0 0 32 32" enable-background="new 0 0 32 32" xml:space="preserve">
<g>
	<path fill-rule="evenodd" clip-rule="evenodd" d="M22,25.498v-7c0-1.416-0.659-3.25-3-3c-1.664,0.178-2,1.549-2,3v7h-4v-13h4v2
		c1.175-1.488,2.284-2.055,4.136-2.055c1.853,0,4.864,0.862,4.864,5.858v7.192L22,25.498z M7.996,10.498
		C6.893,10.498,6,9.604,6,8.501c0-1.104,0.893-1.999,1.996-1.999c1.102,0,1.995,0.895,1.995,1.999
		C9.99,9.604,9.097,10.498,7.996,10.498z M10.003,25.494H6V12.499h4.004V25.494z"/>
</g>
</svg>
