<?xml version="1.0" encoding="utf-8"?>
<!-- Generator: Adobe Illustrator 15.0.0, SVG Export Plug-In . SVG Version: 6.00 Build 0)  -->
<!DOCTYPE svg PUBLIC "-//W3C//DTD SVG 1.1//EN" "http://www.w3.org/Graphics/SVG/1.1/DTD/svg11.dtd">
<svg version="1.1" id="图层_1" xmlns="http://www.w3.org/2000/svg" xmlns:xlink="http://www.w3.org/1999/xlink" x="0px" y="0px"
	 width="32px" height="32px" viewBox="0 0 32 32" enable-background="new 0 0 32 32" xml:space="preserve">
<g>
	<path d="M23.699,15.663c-1.244-0.24-0.639-0.906-0.639-0.906s1.217-1.995-0.241-3.445c-1.809-1.796-6.203,0.229-6.203,0.229
		c-1.678,0.518-1.233-0.236-0.997-1.519c0-1.511-0.521-4.069-4.991-2.559c-4.466,1.519-8.3,6.841-8.3,6.841
		c-2.667,3.536-2.314,6.269-2.314,6.269c0.667,6.033,7.117,7.69,12.135,8.082c5.279,0.411,12.405-1.809,14.564-6.368
		C28.874,17.718,24.948,15.91,23.699,15.663z M12.541,26.953c-5.24,0.244-9.477-2.368-9.477-5.843c0-3.479,4.236-6.27,9.477-6.51
		c5.245-0.24,9.489,1.907,9.489,5.379C22.029,23.454,17.785,26.716,12.541,26.953z"/>
	<path d="M11.495,16.892c-5.271,0.613-4.662,5.519-4.662,5.519s-0.054,1.554,1.413,2.345c3.084,1.659,6.259,0.655,7.864-1.403
		C17.716,21.293,16.774,16.284,11.495,16.892z M10.166,23.778c-0.984,0.114-1.777-0.45-1.777-1.268c0-0.815,0.705-1.668,1.689-1.77
		c1.131-0.107,1.866,0.54,1.866,1.358C11.944,22.914,11.146,23.667,10.166,23.778z M13.273,21.148
		c-0.333,0.247-0.744,0.213-0.92-0.084c-0.184-0.29-0.115-0.755,0.223-0.998c0.391-0.289,0.796-0.205,0.973,0.084
		C13.725,20.446,13.599,20.893,13.273,21.148z"/>
	<path d="M26.267,13.539c0.424,0,0.786-0.313,0.846-0.72c0.008-0.03,0.012-0.057,0.012-0.091c0.644-5.751-4.743-4.762-4.743-4.762
		c-0.478,0-0.86,0.385-0.86,0.864c0,0.472,0.383,0.856,0.86,0.856c3.87-0.849,3.016,2.996,3.016,2.996
		C25.396,13.158,25.786,13.539,26.267,13.539z"/>
	<path d="M25.639,3.356c-1.863-0.434-3.777,0.011-4.314,0.113c-0.041,0.004-0.08,0.079-0.118,0.087
		c-0.019,0.004-0.03,0.04-0.03,0.04c-0.529,0.148-0.916,0.645-0.916,1.22c0,0.686,0.559,1.253,1.257,1.253
		c0,0,0.677-0.088,1.138-0.267c0.456-0.183,4.312-0.135,6.229,3.063c1.045,2.333,0.459,3.895,0.387,4.146
		c0,0-0.249,0.607-0.249,1.204c0,0.689,0.559,0.979,1.251,0.979c0.58,0,1.065-0.194,1.208-1.194h0.008
		C33.545,7,28.971,4.129,25.639,3.356z"/>
</g>
</svg>
