<?xml version="1.0" encoding="utf-8"?>
<!-- Generator: Adobe Illustrator 15.0.0, SVG Export Plug-In . SVG Version: 6.00 Build 0)  -->
<!DOCTYPE svg PUBLIC "-//W3C//DTD SVG 1.1//EN" "http://www.w3.org/Graphics/SVG/1.1/DTD/svg11.dtd">
<svg version="1.1" id="图层_1" xmlns="http://www.w3.org/2000/svg" xmlns:xlink="http://www.w3.org/1999/xlink" x="0px" y="0px"
	 width="32px" height="32px" viewBox="0 0 32 32" enable-background="new 0 0 32 32" xml:space="preserve">
<g>
	<path fill-rule="evenodd" clip-rule="evenodd" d="M28.399,27.97H25.92v0.627c0,1.732-1.388,3.138-3.101,3.138H3.6
		c-1.712,0-3.1-1.405-3.1-3.138V3.499c0-1.733,1.388-3.138,3.1-3.138H16h1.145V0.266l0.087,0.096h0.009v0.01l8.586,9.402h0.094
		v0.103l0.042,0.047L25.92,9.922v7.381h2.479c1.713,0,3.101,1.404,3.101,3.138v4.392C31.5,26.565,30.112,27.97,28.399,27.97z
		 M17.24,2.614v4.021c0,1.732,1.388,3.138,3.1,3.138h3.575L17.24,2.614z M24.68,11.028H19.1c-1.712,0-3.1-1.405-3.1-3.138V1.616
		H4.84c-1.712,0-3.1,1.404-3.1,3.138v22.588c0,1.733,1.388,3.138,3.1,3.138h16.74c1.5,0,2.75-1.078,3.037-2.51H10.42
		c-1.712,0-3.1-1.404-3.1-3.138V20.44c0-1.733,1.388-3.138,3.1-3.138h14.26V11.028z M23.166,20.321h-1.141l-1.305,3.988
		l-1.348-3.988h-1.166l1.903,5.39h1.148L23.166,20.321z M17.996,25.711l-2.133-5.39h-1.137l-2.074,5.39h1.141l0.439-1.225h2.129
		l0.465,1.225H17.996z M24.943,20.321h-1.075v5.39h1.075V20.321z M15.282,21.578l0.733,2h-1.453L15.282,21.578z M5.46,15.42H4.84
		v-0.627H4.22v0.627H2.98V4.126h1.24v0.628h0.62V4.126h0.62v0.628h6.82V4.126h0.62v0.628h0.62V4.126h1.24V15.42h-1.24v-0.627H12.9
		v0.627h-0.62v-0.627H5.46V15.42z M4.84,5.381H4.22v1.255h0.62V5.381z M4.84,7.264H4.22v1.255h0.62V7.264z M4.84,9.773V9.146H4.22
		V10.4h0.62V9.773z M4.84,11.028H4.22v1.255h0.62V11.028z M4.84,12.91H4.22v1.255h0.62V12.91z M12.9,14.165h0.62V12.91H12.9V14.165z
		 M12.9,12.283h0.62v-1.255H12.9V12.283z M12.9,9.773V10.4h0.62V9.146H12.9V9.773z M12.9,8.519h0.62V7.264H12.9V8.519z M12.9,6.636
		h0.62V5.381H12.9V6.636z M12.28,9.146V8.519V7.264V6.636V5.381H5.46v1.255v0.628v1.255v0.627v0.628h6.82V9.146z M12.28,14.165
		V12.91v-0.627v-1.255V10.4H5.46v0.628v1.255v0.627v1.255H12.28z"/>
</g>
</svg>
