<?xml version="1.0" encoding="utf-8"?>
<!-- Generator: Adobe Illustrator 15.0.0, SVG Export Plug-In . SVG Version: 6.00 Build 0)  -->
<!DOCTYPE svg PUBLIC "-//W3C//DTD SVG 1.1//EN" "http://www.w3.org/Graphics/SVG/1.1/DTD/svg11.dtd">
<svg version="1.1" id="图层_1" xmlns="http://www.w3.org/2000/svg" xmlns:xlink="http://www.w3.org/1999/xlink" x="0px" y="0px"
	 width="32px" height="32px" viewBox="0 0 32 32" enable-background="new 0 0 32 32" xml:space="preserve">
<g>
	<path fill-rule="evenodd" clip-rule="evenodd" d="M31.24,6.386v24.615H0.764V6.386H0.001l-0.003-2.892
		c0-1.371,1.115-2.49,2.482-2.495h27.027c1.375,0.005,2.488,1.124,2.488,2.495l0.006,2.892H31.24z M2.287,29.463h27.428V6.386H2.287
		V29.463z M30.479,3.309c0-0.742-0.018-0.767-0.764-0.769H2.287C1.548,2.542,1.525,2.566,1.525,3.309v1.539h28.953V3.309z
		 M20.316,15.607H12.47c-1.415,0-2.559-1.207-2.559-2.689c0-1.481,1.144-2.688,2.55-2.688h7.851c1.41,0,2.555,1.207,2.555,2.688
		C22.867,14.4,21.723,15.607,20.316,15.607z M20.572,11.771h-7.618c-0.761,0-1.524-0.032-1.524,0.77
		c0,0.803,0.064,1.538,0.762,1.538h8.38c0.762,0,1.123-0.357,1.123-1.16C21.695,12.116,21.334,11.771,20.572,11.771z"/>
</g>
</svg>
