<?xml version="1.0" encoding="utf-8"?>
<!-- Generator: Adobe Illustrator 15.0.0, SVG Export Plug-In . SVG Version: 6.00 Build 0)  -->
<!DOCTYPE svg PUBLIC "-//W3C//DTD SVG 1.1//EN" "http://www.w3.org/Graphics/SVG/1.1/DTD/svg11.dtd">
<svg version="1.1" id="图层_1" xmlns="http://www.w3.org/2000/svg" xmlns:xlink="http://www.w3.org/1999/xlink" x="0px" y="0px"
	 width="32px" height="32px" viewBox="0 0 32 32" enable-background="new 0 0 32 32" xml:space="preserve">
<g>
	<path fill-rule="evenodd" clip-rule="evenodd" d="M29.473,19.252c0.03-5.476-2.578-7.114-2.578-7.114
		c-4-2.227-6.333,0.026-6.333,0.026s0.101-1.395-3.21-2.563c1.386-2.218,3.888-3.595,6.743-3.595c4.359,0,7.894,3.347,7.894,7.604
		C31.988,15.838,31.021,17.846,29.473,19.252z M19.795,15.036l0.585-0.898c0.657-0.97,1.424-1.018,2.205-1.135
		c3.526,0,5.642,0.868,5.563,5.976c0,3.275-2.531,6.998-8.217,6.998L6.54,25.994c-3.657,0-6.528-2.887-6.528-6.283
		c0-3.399,2.019-6.281,6.228-6.208C5.441,14.629,6.7,15.175,6.7,15.175c1.61-3.977,4.004-5.426,6.815-5.426
		C16.29,9.749,19.712,11.399,19.795,15.036z"/>
</g>
</svg>
