<?xml version="1.0" encoding="utf-8"?>
<!-- Generator: Adobe Illustrator 15.0.0, SVG Export Plug-In . SVG Version: 6.00 Build 0)  -->
<!DOCTYPE svg PUBLIC "-//W3C//DTD SVG 1.1//EN" "http://www.w3.org/Graphics/SVG/1.1/DTD/svg11.dtd">
<svg version="1.1" id="图层_1" xmlns="http://www.w3.org/2000/svg" xmlns:xlink="http://www.w3.org/1999/xlink" x="0px" y="0px"
	 width="32px" height="32px" viewBox="0 0 32 32" enable-background="new 0 0 32 32" xml:space="preserve">
<g>
	<path fill-rule="evenodd" clip-rule="evenodd" d="M20.98,5.007c0,1.268,0.02,2.99,0.02,2.99s-2.367,0-3,1
		c-0.347,0.547,0.03,2.851,0,4c1.104,0,1.896,0,3,0c-0.283,1.344-0.485,1.841-0.693,3.004c-0.955,0-2.307-0.004-2.307-0.004v11
		c0,0-3.532,0.002-5.018,0.002C12.983,23.607,13,19.606,13,15.997c-0.722,0-1.278,0-2,0c0-1.268,0-1.731,0-3c0.7,0,1.299,0,2,0
		c0.1-2.53,0.098-5.451,1.316-6.728C15.685,4.835,16.991,5.007,20.98,5.007z"/>
</g>
</svg>
