<?xml version="1.0" encoding="utf-8"?>
<!-- Generator: Adobe Illustrator 15.0.0, SVG Export Plug-In . SVG Version: 6.00 Build 0)  -->
<!DOCTYPE svg PUBLIC "-//W3C//DTD SVG 1.1//EN" "http://www.w3.org/Graphics/SVG/1.1/DTD/svg11.dtd">
<svg version="1.1" id="图层_1" xmlns="http://www.w3.org/2000/svg" xmlns:xlink="http://www.w3.org/1999/xlink" x="0px" y="0px"
	 width="32px" height="32px" viewBox="0 0 32 32" enable-background="new 0 0 32 32" xml:space="preserve">
<g>
	<path fill-rule="evenodd" clip-rule="evenodd" d="M23.823,32H8.176C7.25,32,6.5,31.259,6.5,30.345V1.655C6.5,0.741,7.25,0,8.176,0
		h15.647C24.749,0,25.5,0.741,25.5,1.655v28.689C25.5,31.259,24.749,32,23.823,32z M16,30.345c0.617,0,1.117-0.494,1.117-1.104
		s-0.5-1.104-1.117-1.104s-1.118,0.494-1.118,1.104S15.383,30.345,16,30.345z M23.823,3.311h-0.559H8.735H8.176v23.172h0.559h14.529
		h0.559V3.311z"/>
</g>
</svg>
