<?xml version="1.0" encoding="utf-8"?>
<!-- Generator: Adobe Illustrator 15.0.0, SVG Export Plug-In . SVG Version: 6.00 Build 0)  -->
<!DOCTYPE svg PUBLIC "-//W3C//DTD SVG 1.1//EN" "http://www.w3.org/Graphics/SVG/1.1/DTD/svg11.dtd">
<svg version="1.1" id="图层_1" xmlns="http://www.w3.org/2000/svg" xmlns:xlink="http://www.w3.org/1999/xlink" x="0px" y="0px"
	 width="32px" height="32px" viewBox="0 0 32 32" enable-background="new 0 0 32 32" xml:space="preserve">
<g>
	<path fill-rule="evenodd" clip-rule="evenodd" d="M7.272,15.91c0.343,0.093,0.546,0.446,0.453,0.789
		c-0.093,0.342-0.447,0.544-0.791,0.451s-0.546-0.446-0.453-0.789S6.929,15.816,7.272,15.91z M6.427,19.011
		c-0.094,0.343-0.447,0.545-0.791,0.452s-0.546-0.446-0.453-0.789c0.094-0.343,0.447-0.545,0.791-0.452
		C6.318,18.315,6.521,18.669,6.427,19.011z M6.755,12.298c0.251,0.25,0.251,0.657,0,0.909c-0.251,0.251-0.659,0.251-0.911,0
		c-0.251-0.252-0.251-0.659,0-0.909C6.096,12.046,6.504,12.046,6.755,12.298z M10.005,19.793c-0.312,0.171-0.703,0.06-0.875-0.251
		s-0.06-0.702,0.251-0.874c0.311-0.173,0.703-0.061,0.875,0.25S10.316,19.62,10.005,19.793z M9.644,14.555
		c0.343,0.093,0.546,0.446,0.453,0.789s-0.447,0.545-0.791,0.452c-0.343-0.094-0.546-0.446-0.453-0.79
		C8.946,14.664,9.3,14.462,9.644,14.555z M8.122,10.934c0.251-0.251,0.659-0.251,0.911,0s0.251,0.658,0,0.909s-0.66,0.251-0.911,0
		C7.87,11.592,7.87,11.185,8.122,10.934z M9.313,23.85c0.311-0.172,0.703-0.06,0.875,0.251s0.06,0.702-0.251,0.874
		c-0.312,0.172-0.703,0.061-0.875-0.25C8.889,24.413,9.001,24.022,9.313,23.85z M8.376,22.163c-0.172-0.311-0.06-0.701,0.251-0.873
		c0.311-0.173,0.703-0.061,0.875,0.25s0.06,0.702-0.251,0.874S8.548,22.474,8.376,22.163z M20.186,6.551V7.41
		c-0.025,0.029-0.045,0.063-0.078,0.087c-0.285,0.213-0.688,0.154-0.9-0.131c-0.213-0.284-0.154-0.687,0.131-0.899
		C19.604,6.27,19.965,6.315,20.186,6.551z M21.713,23.68c-0.313,0.172-0.703,0.059-0.877-0.252
		c-0.172-0.311-0.059-0.701,0.252-0.873c0.313-0.173,0.703-0.06,0.877,0.251C22.137,23.116,22.023,23.507,21.713,23.68z
		 M22.344,18.037c-0.355-0.006-0.639-0.3-0.633-0.654c0.008-0.354,0.301-0.637,0.656-0.631c0.355,0.007,0.639,0.3,0.633,0.654
		C22.992,17.762,22.699,18.044,22.344,18.037z M20.74,12.642c-0.285,0.212-0.688,0.154-0.9-0.13c-0.213-0.285-0.154-0.688,0.131-0.9
		c0.066-0.05,0.141-0.082,0.215-0.103v0.313h0.723C21.061,12.098,21.002,12.447,20.74,12.642z M20.186,9.118v0.598
		C20.088,9.523,20.086,9.302,20.186,9.118z M24.277,22.997c-0.311,0.172-0.703,0.06-0.875-0.252
		c-0.172-0.31-0.059-0.701,0.252-0.873c0.313-0.172,0.703-0.06,0.875,0.251C24.703,22.434,24.59,22.825,24.277,22.997z
		 M24.369,12.931c0.008-0.354,0.301-0.637,0.656-0.631c0.355,0.007,0.639,0.3,0.633,0.655c-0.006,0.354-0.301,0.637-0.656,0.631
		C24.646,13.579,24.363,13.286,24.369,12.931z M24.311,16.145c-0.355-0.007-0.639-0.299-0.631-0.654
		c0.006-0.355,0.299-0.638,0.654-0.631c0.355,0.006,0.639,0.3,0.633,0.654C24.961,15.869,24.666,16.151,24.311,16.145z
		 M19.338,22.052c0.172,0.311,0.059,0.701-0.252,0.874c-0.311,0.171-0.703,0.059-0.875-0.252s-0.059-0.702,0.252-0.873
		C18.773,21.628,19.166,21.741,19.338,22.052z M17.125,25.794c0.332,0.124,0.502,0.494,0.379,0.827
		c-0.123,0.332-0.494,0.502-0.829,0.379c-0.333-0.124-0.503-0.494-0.379-0.827C16.419,25.841,16.791,25.671,17.125,25.794z
		 M14.933,24.297c0.333,0.123,0.503,0.493,0.38,0.826c-0.124,0.333-0.495,0.503-0.828,0.379s-0.503-0.493-0.38-0.827
		C14.229,24.343,14.6,24.173,14.933,24.297z M13.346,23.022c-0.333-0.124-0.503-0.493-0.38-0.826
		c0.124-0.333,0.495-0.503,0.828-0.379c0.333,0.123,0.503,0.493,0.38,0.826C14.05,22.977,13.68,23.146,13.346,23.022z
		 M11.765,10.934c0.251,0.251,0.251,0.658,0,0.909s-0.659,0.251-0.911,0c-0.252-0.251-0.252-0.658,0-0.909
		C11.106,10.683,11.514,10.683,11.765,10.934z M11.362,6.836c0.355,0,0.644,0.288,0.644,0.643c0,0.355-0.289,0.643-0.644,0.643
		c-0.356,0-0.644-0.287-0.644-0.643C10.718,7.124,11.006,6.836,11.362,6.836z M13.294,8.121c0-0.354,0.289-0.643,0.644-0.643
		c0.356,0,0.644,0.288,0.644,0.643c0,0.355-0.288,0.644-0.644,0.644C13.583,8.765,13.294,8.477,13.294,8.121z M15.227,10.05
		c0-0.354,0.289-0.643,0.644-0.643s0.645,0.288,0.645,0.643c0,0.355-0.289,0.644-0.645,0.644S15.227,10.405,15.227,10.05z
		 M20.822,16.481c0,2.788-2.256,5.049-5.04,5.049c-2.783,0-5.04-2.261-5.04-5.049c0-2.789,2.256-5.049,5.04-5.049
		C18.566,11.433,20.822,13.692,20.822,16.481z M15.783,14c-1.368,0-2.477,1.111-2.477,2.481s1.109,2.481,2.477,2.481
		s2.477-1.111,2.477-2.481S17.15,14,15.783,14z M20.186,2.154C18.859,1.755,17.457,1.535,16,1.535C7.997,1.535,1.508,8.012,1.508,16
		c0,7.987,6.488,14.464,14.492,14.464c8.004,0,14.492-6.477,14.492-14.464c0-1.454-0.221-2.855-0.621-4.179h1.33
		c0.365,1.333,0.578,2.729,0.578,4.179c0,8.698-7.064,15.75-15.779,15.75S0.22,24.698,0.22,16C0.22,7.301,7.285,0.25,16,0.25
		c1.451,0,2.852,0.212,4.186,0.578V2.154z"/>
</g>
</svg>
